<svg xmlns="http://www.w3.org/2000/svg" width="50" height="50" viewBox="0 0 50 50"><g id="Web_Design_Development" data-name="Web Design &amp; Development" transform="translate(-0.5 -0.98)"><path id="Path_77725" data-name="Path 77725" d="M25.5.98a25,25,0,1,1-25,25,25.068,25.068,0,0,1,25-25Z" fill="#2b7ce5" fill-rule="evenodd"></path><g id="Layer_1" transform="translate(10.571 13.419)"><path id="Path_77726" data-name="Path 77726" d="M124.92,197.338l3.1-11.588a.328.328,0,0,1,.634.17l-3.105,11.588a.328.328,0,1,1-.634-.17Zm5.617-2.458,3.434-3.434-3.434-3.434a.328.328,0,0,1,.464-.464l3.666,3.666a.328.328,0,0,1,0,.464L131,195.344a.328.328,0,0,1-.464-.464Zm9.6,6.64a1.584,1.584,0,0,0,1.582-1.582v-18.2H111.861v18.2a1.584,1.584,0,0,0,1.582,1.582Zm-17.094-6.64a.328.328,0,0,1-.464.464l-3.666-3.666a.328.328,0,0,1,0-.464l3.666-3.666a.328.328,0,0,1,.464.464l-3.434,3.434Z" transform="translate(-111.861 -176.397)" fill="#fffffe" fill-rule="evenodd"></path><path id="Path_77727" data-name="Path 77727" d="M111.86,138.338h13.054l-2.594-3.985-.455-.7h-8.411a1.591,1.591,0,0,0-1.593,1.573v3.112Zm9.348-2.676a.328.328,0,0,1,0,.656h-.538a.328.328,0,0,1,0-.656Zm-3.4,0a.328.328,0,0,1,0,.656h-.538a.328.328,0,0,1,0-.656Zm-3.4,0a.328.328,0,0,1,0,.656h-.549a.328.328,0,0,1,0-.656Z" transform="translate(-111.86 -133.653)" fill="#fffffe" fill-rule="evenodd"></path><path id="Path_77728" data-name="Path 77728" d="M213.737,140.964l2.521,3.873h16.02v-2.382a1.5,1.5,0,0,0-1.49-1.49ZM219,143.229a.328.328,0,0,1,0-.656h8.349a.328.328,0,0,1,0,.656Z" transform="translate(-202.421 -140.152)" fill="#fffffe" fill-rule="evenodd"></path></g></g></svg>