<svg xmlns="http://www.w3.org/2000/svg" width="50" height="50" viewBox="0 0 50 50"><g id="Mobile_App_Development" data-name="Mobile App Development" transform="translate(-0.159 -0.98)"><path id="Path_77729" data-name="Path 77729" d="M25.5.98a25,25,0,1,1-25,25,25.074,25.074,0,0,1,25-25Z" transform="translate(-0.341 0)" fill="#2b7ce5" fill-rule="evenodd"></path><g id="commerce" transform="translate(-76.896 -6.335)"><path id="Path_77738" data-name="Path 77738" d="M93.847,342.291h16.407a.95.95,0,0,0,.947-.947V338.3H92.9v3.044A.95.95,0,0,0,93.847,342.291Zm6.174-2.345h4.068a.35.35,0,1,1,0,.7h-4.068a.35.35,0,1,1,0-.7Z" transform="translate(0.155 -294.357)" fill="#fff" fill-rule="evenodd"></path><path id="Path_77739" data-name="Path 77739" d="M92.9,82.942h18.309V59.9H92.9Z" transform="translate(0.155 -39.699)" fill="#fff" fill-rule="evenodd"></path><path id="Path_77741" data-name="Path 77741" d="M111.209,17.447a.95.95,0,0,0-.947-.947H93.847a.95.95,0,0,0-.947.947v2.072h18.309Z" transform="translate(0.155)" fill="#fff" fill-rule="evenodd"></path><path id="Path_77742" data-name="Path 77742" d="M118.264,189.766l1.522-5.964a.161.161,0,1,1,.311.087l-1.522,5.964a.163.163,0,0,1-.155.125A.168.168,0,0,1,118.264,189.766Zm2.754-1.265,1.684-1.767-1.684-1.767c-.15-.157.078-.4.228-.239l1.8,1.887a.175.175,0,0,1,0,.239l-1.8,1.887a.156.156,0,0,1-.114.049A.17.17,0,0,1,121.018,188.5Zm4.707,3.417a.8.8,0,0,0,.776-.814v-9.366h-14.64V191.1a.8.8,0,0,0,.776.814Zm-8.382-3.417a.17.17,0,0,1-.114.288.156.156,0,0,1-.114-.049l-1.8-1.887a.175.175,0,0,1,0-.239l1.8-1.887c.15-.157.377.082.228.239l-1.684,1.767Z" transform="translate(-16.806 -155.191)" fill="#2b7ce5" fill-rule="evenodd"></path></g></g></svg>