<svg xmlns="http://www.w3.org/2000/svg" width="50" height="50" viewBox="0 0 50 50"><g id="Enterprise_Software_Development" data-name="Enterprise Software Development" transform="translate(-0.159 -0.98)"><path id="Path_77729" data-name="Path 77729" d="M25.5.98a25,25,0,1,1-25,25,25.074,25.074,0,0,1,25-25Z" transform="translate(-0.341 0)" fill="#2b7ce5" fill-rule="evenodd"></path><g id="code" transform="translate(-70.1 -69.278)"><path id="Path_77736" data-name="Path 77736" d="M435.138,427.85a7.288,7.288,0,1,1-7.288,7.288A7.3,7.3,0,0,1,435.138,427.85Zm5.088,7.288a.292.292,0,0,0-.115-.232l-2.317-1.77a.292.292,0,0,0-.354.463l2.013,1.538-2.013,1.538a.292.292,0,0,0,.354.463l2.317-1.77A.291.291,0,0,0,440.226,435.138Zm-4.05-2.631a.291.291,0,0,0-.561-.157l-1.514,5.418a.291.291,0,1,0,.561.157Zm-3.34,1.093a.292.292,0,0,0-.354-.463l-2.317,1.77a.292.292,0,0,0,0,.463l2.317,1.77a.292.292,0,0,0,.354-.463l-2.014-1.538Z" transform="translate(-339.879 -339.879)" fill="#fff"></path><path id="Path_77737" data-name="Path 77737" d="M108.518,93.874v2.77h-2.385a.292.292,0,0,0-.288.247,10.7,10.7,0,0,1-1.948,4.7.291.291,0,0,0,.029.378l1.687,1.687-1.959,1.959-1.687-1.687a.291.291,0,0,0-.378-.029,10.71,10.71,0,0,1-4.7,1.948.291.291,0,0,0-.247.288v2.385h-2.77v-2.385a.291.291,0,0,0-.247-.288,10.707,10.707,0,0,1-4.7-1.948.291.291,0,0,0-.378.029l-1.688,1.687L84.9,103.655l1.687-1.687a.291.291,0,0,0,.029-.378,10.71,10.71,0,0,1-1.948-4.7.291.291,0,0,0-.288-.247H82v-2.77h2.385a.291.291,0,0,0,.288-.247,10.707,10.707,0,0,1,1.948-4.7.291.291,0,0,0-.029-.378L84.9,86.863,86.863,84.9l1.688,1.687a.291.291,0,0,0,.378.029,10.709,10.709,0,0,1,4.7-1.948.291.291,0,0,0,.247-.288V82h2.77v2.385a.291.291,0,0,0,.247.288,10.707,10.707,0,0,1,4.7,1.948.291.291,0,0,0,.378-.029l1.687-1.687,1.959,1.959-1.687,1.687a.291.291,0,0,0-.029.378,10.708,10.708,0,0,1,1.948,4.7.292.292,0,0,0,.288.247Zm-5.388,1.385a7.847,7.847,0,1,0-.619,3.064A7.821,7.821,0,0,0,103.13,95.259Z" fill="#fff"></path></g></g></svg>